<svg width="1194" height="146" viewBox="0 0 1194 146" fill="none" xmlns="http://www.w3.org/2000/svg">
<g filter="url(#filter0_d_5_136)">
<path d="M32.205 8.38155H55.757L53.453 85.3096C53.2823 91.9656 52.3863 97.1709 50.765 100.926C49.229 104.595 47.2663 107.155 44.877 108.606C42.573 110.056 40.141 110.782 37.581 110.782C34.5943 110.782 31.053 109.843 26.957 107.966C22.9463 106.003 18.9357 103.443 14.925 100.286C10.9997 97.1282 7.58633 93.7149 4.685 90.0456L5.325 88.7656C8.82367 90.3869 12.365 91.7096 15.949 92.7336C19.533 93.7576 22.8183 94.5256 25.805 95.0376C28.877 95.4642 31.181 95.6776 32.717 95.6776C34.1677 95.6776 35.277 95.0802 36.045 93.8856C36.813 92.6909 37.197 90.2589 37.197 86.5896C37.197 85.9069 37.197 85.1816 37.197 84.4136C37.197 83.6456 37.1543 82.8349 37.069 81.9816L32.205 8.38155ZM147.36 97.9816C143.435 101.651 139.979 104.552 136.992 106.686C134.005 108.819 131.317 109.886 128.928 109.886C127.051 109.886 125.344 109.16 123.808 107.71C122.357 106.174 120.992 103.742 119.712 100.414C117.067 102.718 113.824 104.68 109.984 106.302C106.144 107.838 102.005 108.862 97.568 109.374C96.2027 109.544 94.88 109.672 93.6 109.758C92.32 109.843 91.0827 109.886 89.888 109.886C77.856 109.886 71.84 105.576 71.84 96.9576C71.84 95.9336 71.9253 94.8669 72.096 93.7576C72.2667 92.6482 72.5227 91.4536 72.864 90.1736C73.632 87.3576 75.168 84.8402 77.472 82.6216C79.8613 80.3176 82.72 78.2696 86.048 76.4776C89.376 74.6002 92.7893 72.8936 96.288 71.3576C99.7867 69.7362 103.029 68.2429 106.016 66.8776C109.088 65.4269 111.563 64.0189 113.44 62.6536C115.403 61.2882 116.384 59.9229 116.384 58.5576C116.384 54.8029 115.915 52.2856 114.976 51.0056C114.037 49.6402 112.245 48.9576 109.6 48.9576C107.723 48.9576 104.821 49.1282 100.896 49.4696C96.9707 49.8109 92.6613 50.3229 87.968 51.0056C83.2747 51.6882 78.7947 52.5842 74.528 53.6936L73.888 52.4136C76.192 50.1949 79.136 48.0616 82.72 46.0136C86.3893 43.9656 90.272 42.1309 94.368 40.5096C98.5493 38.8882 102.688 37.6082 106.784 36.6696C110.88 35.7309 114.592 35.2616 117.92 35.2616C123.211 35.2616 127.136 35.8162 129.696 36.9256C132.341 37.9496 134.091 40.0402 134.944 43.1976C135.883 46.2696 136.352 50.9202 136.352 57.1496V89.5336C136.352 92.6056 136.608 94.8242 137.12 96.1896C137.717 97.4696 139.04 98.1096 141.088 98.1096C141.771 98.1096 142.581 98.0242 143.52 97.8536C144.544 97.6829 145.653 97.4696 146.848 97.2136L147.36 97.9816ZM117.408 69.6936C115.531 71.3149 113.013 73.0642 109.856 74.9416C106.784 76.7336 103.797 78.6962 100.896 80.8296C97.9947 82.8776 95.8613 85.1816 94.496 87.7416C93.3013 90.1309 92.704 92.2216 92.704 94.0136C92.704 95.7202 93.216 97.1282 94.24 98.2376C95.3493 99.3469 96.8853 99.9016 98.848 99.9016C99.2747 99.9016 99.7013 99.9016 100.128 99.9016C100.64 99.8162 101.109 99.7309 101.536 99.6456C103.243 99.2189 105.205 98.6216 107.424 97.8536C109.728 97.0856 111.861 96.1896 113.824 95.1656C115.872 94.1416 117.323 93.1176 118.176 92.0936L117.408 69.6936ZM153.412 6.58955L184.516 11.9656L163.652 32.9576L153.412 6.58955ZM158.916 108.222L155.588 36.9256H178.116L174.788 108.222H158.916ZM242.514 8.38155H265.81L265.682 15.1656C269.351 12.9469 273.106 11.2829 276.946 10.1736C280.786 8.97889 284.583 8.38155 288.338 8.38155C297.981 8.38155 305.021 10.2589 309.458 14.0135C313.981 17.6829 316.242 22.2909 316.242 27.8376C316.242 28.3496 316.199 28.8616 316.114 29.3736C316.114 29.8856 316.071 30.3976 315.986 30.9096C315.474 35.0056 313.298 39.1016 309.458 43.1976C305.618 47.2936 299.559 51.0909 291.282 54.5896C297.767 54.9309 303.229 56.2536 307.666 58.5576C312.103 60.8616 315.474 63.5496 317.778 66.6216C320.082 69.6936 321.234 72.6376 321.234 75.4536C321.234 82.5362 318.29 88.6802 312.402 93.8856C306.599 99.0056 298.194 102.974 287.186 105.79C276.178 108.52 262.866 109.886 247.25 109.886L242.514 8.38155ZM264.786 59.0696C272.21 55.5709 278.141 52.0296 282.578 48.4456C287.101 44.8616 290.386 41.5762 292.434 38.5896C294.567 35.5176 295.762 33.1709 296.018 31.5496C296.103 31.2082 296.146 30.9096 296.146 30.6536C296.146 30.3122 296.146 29.9709 296.146 29.6296C296.146 26.7282 295.207 24.0829 293.33 21.6936C291.453 19.2189 288.893 17.9816 285.65 17.9816C281.981 17.9816 278.567 18.1949 275.41 18.6216C272.253 18.9629 268.967 19.6456 265.554 20.6696L264.786 59.0696ZM263.762 103.87C270.93 102.248 276.775 100.371 281.298 98.2376C285.906 96.0189 289.447 93.6722 291.922 91.1976C294.482 88.7229 296.274 86.2056 297.298 83.6456C298.322 81.0002 298.834 78.3976 298.834 75.8376C298.834 74.3869 298.365 72.9789 297.426 71.6136C296.487 70.1629 294.781 68.8402 292.306 67.6456C289.831 66.3656 286.333 65.3416 281.81 64.5736C277.373 63.7202 271.655 63.2509 264.658 63.1656L263.762 103.87ZM404.86 97.9816C400.935 101.651 397.479 104.552 394.492 106.686C391.505 108.819 388.817 109.886 386.428 109.886C384.551 109.886 382.844 109.16 381.308 107.71C379.857 106.174 378.492 103.742 377.212 100.414C374.567 102.718 371.324 104.68 367.484 106.302C363.644 107.838 359.505 108.862 355.068 109.374C353.703 109.544 352.38 109.672 351.1 109.758C349.82 109.843 348.583 109.886 347.388 109.886C335.356 109.886 329.34 105.576 329.34 96.9576C329.34 95.9336 329.425 94.8669 329.596 93.7576C329.767 92.6482 330.023 91.4536 330.364 90.1736C331.132 87.3576 332.668 84.8402 334.972 82.6216C337.361 80.3176 340.22 78.2696 343.548 76.4776C346.876 74.6002 350.289 72.8936 353.788 71.3576C357.287 69.7362 360.529 68.2429 363.516 66.8776C366.588 65.4269 369.063 64.0189 370.94 62.6536C372.903 61.2882 373.884 59.9229 373.884 58.5576C373.884 54.8029 373.415 52.2856 372.476 51.0056C371.537 49.6402 369.745 48.9576 367.1 48.9576C365.223 48.9576 362.321 49.1282 358.396 49.4696C354.471 49.8109 350.161 50.3229 345.468 51.0056C340.775 51.6882 336.295 52.5842 332.028 53.6936L331.388 52.4136C333.692 50.1949 336.636 48.0616 340.22 46.0136C343.889 43.9656 347.772 42.1309 351.868 40.5096C356.049 38.8882 360.188 37.6082 364.284 36.6696C368.38 35.7309 372.092 35.2616 375.42 35.2616C380.711 35.2616 384.636 35.8162 387.196 36.9256C389.841 37.9496 391.591 40.0402 392.444 43.1976C393.383 46.2696 393.852 50.9202 393.852 57.1496V89.5336C393.852 92.6056 394.108 94.8242 394.62 96.1896C395.217 97.4696 396.54 98.1096 398.588 98.1096C399.271 98.1096 400.081 98.0242 401.02 97.8536C402.044 97.6829 403.153 97.4696 404.348 97.2136L404.86 97.9816ZM374.908 69.6936C373.031 71.3149 370.513 73.0642 367.356 74.9416C364.284 76.7336 361.297 78.6962 358.396 80.8296C355.495 82.8776 353.361 85.1816 351.996 87.7416C350.801 90.1309 350.204 92.2216 350.204 94.0136C350.204 95.7202 350.716 97.1282 351.74 98.2376C352.849 99.3469 354.385 99.9016 356.348 99.9016C356.775 99.9016 357.201 99.9016 357.628 99.9016C358.14 99.8162 358.609 99.7309 359.036 99.6456C360.743 99.2189 362.705 98.6216 364.924 97.8536C367.228 97.0856 369.361 96.1896 371.324 95.1656C373.372 94.1416 374.823 93.1176 375.676 92.0936L374.908 69.6936ZM416.544 108.222L413.088 8.38155H436L432.544 108.222H416.544ZM524.485 97.9816C520.56 101.651 517.104 104.552 514.117 106.686C511.13 108.819 508.442 109.886 506.053 109.886C504.176 109.886 502.469 109.16 500.933 107.71C499.482 106.174 498.117 103.742 496.837 100.414C494.192 102.718 490.949 104.68 487.109 106.302C483.269 107.838 479.13 108.862 474.693 109.374C473.328 109.544 472.005 109.672 470.725 109.758C469.445 109.843 468.208 109.886 467.013 109.886C454.981 109.886 448.965 105.576 448.965 96.9576C448.965 95.9336 449.05 94.8669 449.221 93.7576C449.392 92.6482 449.648 91.4536 449.989 90.1736C450.757 87.3576 452.293 84.8402 454.597 82.6216C456.986 80.3176 459.845 78.2696 463.173 76.4776C466.501 74.6002 469.914 72.8936 473.413 71.3576C476.912 69.7362 480.154 68.2429 483.141 66.8776C486.213 65.4269 488.688 64.0189 490.565 62.6536C492.528 61.2882 493.509 59.9229 493.509 58.5576C493.509 54.8029 493.04 52.2856 492.101 51.0056C491.162 49.6402 489.37 48.9576 486.725 48.9576C484.848 48.9576 481.946 49.1282 478.021 49.4696C474.096 49.8109 469.786 50.3229 465.093 51.0056C460.4 51.6882 455.92 52.5842 451.653 53.6936L451.013 52.4136C453.317 50.1949 456.261 48.0616 459.845 46.0136C463.514 43.9656 467.397 42.1309 471.493 40.5096C475.674 38.8882 479.813 37.6082 483.909 36.6696C488.005 35.7309 491.717 35.2616 495.045 35.2616C500.336 35.2616 504.261 35.8162 506.821 36.9256C509.466 37.9496 511.216 40.0402 512.069 43.1976C513.008 46.2696 513.477 50.9202 513.477 57.1496V89.5336C513.477 92.6056 513.733 94.8242 514.245 96.1896C514.842 97.4696 516.165 98.1096 518.213 98.1096C518.896 98.1096 519.706 98.0242 520.645 97.8536C521.669 97.6829 522.778 97.4696 523.973 97.2136L524.485 97.9816ZM494.533 69.6936C492.656 71.3149 490.138 73.0642 486.981 74.9416C483.909 76.7336 480.922 78.6962 478.021 80.8296C475.12 82.8776 472.986 85.1816 471.621 87.7416C470.426 90.1309 469.829 92.2216 469.829 94.0136C469.829 95.7202 470.341 97.1282 471.365 98.2376C472.474 99.3469 474.01 99.9016 475.973 99.9016C476.4 99.9016 476.826 99.9016 477.253 99.9016C477.765 99.8162 478.234 99.7309 478.661 99.6456C480.368 99.2189 482.33 98.6216 484.549 97.8536C486.853 97.0856 488.986 96.1896 490.949 95.1656C492.997 94.1416 494.448 93.1176 495.301 92.0936L494.533 69.6936ZM540.521 128.318L558.697 98.7496L527.081 40.7656L549.353 35.2616L565.737 87.2296L597.097 35.7736H598.889L562.025 137.534L540.521 128.318ZM617.021 128.318L635.197 98.7496L603.581 40.7656L625.853 35.2616L642.237 87.2296L673.597 35.7736H675.389L638.525 137.534L617.021 128.318ZM755.985 97.9816C752.06 101.651 748.604 104.552 745.617 106.686C742.63 108.819 739.942 109.886 737.553 109.886C735.676 109.886 733.969 109.16 732.433 107.71C730.982 106.174 729.617 103.742 728.337 100.414C725.692 102.718 722.449 104.68 718.609 106.302C714.769 107.838 710.63 108.862 706.193 109.374C704.828 109.544 703.505 109.672 702.225 109.758C700.945 109.843 699.708 109.886 698.513 109.886C686.481 109.886 680.465 105.576 680.465 96.9576C680.465 95.9336 680.55 94.8669 680.721 93.7576C680.892 92.6482 681.148 91.4536 681.489 90.1736C682.257 87.3576 683.793 84.8402 686.097 82.6216C688.486 80.3176 691.345 78.2696 694.673 76.4776C698.001 74.6002 701.414 72.8936 704.913 71.3576C708.412 69.7362 711.654 68.2429 714.641 66.8776C717.713 65.4269 720.188 64.0189 722.065 62.6536C724.028 61.2882 725.009 59.9229 725.009 58.5576C725.009 54.8029 724.54 52.2856 723.601 51.0056C722.662 49.6402 720.87 48.9576 718.225 48.9576C716.348 48.9576 713.446 49.1282 709.521 49.4696C705.596 49.8109 701.286 50.3229 696.593 51.0056C691.9 51.6882 687.42 52.5842 683.153 53.6936L682.513 52.4136C684.817 50.1949 687.761 48.0616 691.345 46.0136C695.014 43.9656 698.897 42.1309 702.993 40.5096C707.174 38.8882 711.313 37.6082 715.409 36.6696C719.505 35.7309 723.217 35.2616 726.545 35.2616C731.836 35.2616 735.761 35.8162 738.321 36.9256C740.966 37.9496 742.716 40.0402 743.569 43.1976C744.508 46.2696 744.977 50.9202 744.977 57.1496V89.5336C744.977 92.6056 745.233 94.8242 745.745 96.1896C746.342 97.4696 747.665 98.1096 749.713 98.1096C750.396 98.1096 751.206 98.0242 752.145 97.8536C753.169 97.6829 754.278 97.4696 755.473 97.2136L755.985 97.9816ZM726.033 69.6936C724.156 71.3149 721.638 73.0642 718.481 74.9416C715.409 76.7336 712.422 78.6962 709.521 80.8296C706.62 82.8776 704.486 85.1816 703.121 87.7416C701.926 90.1309 701.329 92.2216 701.329 94.0136C701.329 95.7202 701.841 97.1282 702.865 98.2376C703.974 99.3469 705.51 99.9016 707.473 99.9016C707.9 99.9016 708.326 99.9016 708.753 99.9016C709.265 99.8162 709.734 99.7309 710.161 99.6456C711.868 99.2189 713.83 98.6216 716.049 97.8536C718.353 97.0856 720.486 96.1896 722.449 95.1656C724.497 94.1416 725.948 93.1176 726.801 92.0936L726.033 69.6936ZM767.797 45.2456L775.477 25.7896L760.245 20.9256L773.813 0.829552L791.477 17.7256L768.821 46.0136L767.797 45.2456ZM858.13 60.9896C855.911 58.7709 853.095 56.5522 849.682 54.3336C846.269 52.1149 842.77 50.1949 839.186 48.5736C835.687 46.8669 832.615 45.8002 829.97 45.3736C829.373 45.2029 828.775 45.1176 828.178 45.1176C827.581 45.1176 826.983 45.1176 826.386 45.1176C823.741 45.1176 821.565 45.5869 819.858 46.5256C818.151 47.4642 817.298 48.6589 817.298 50.1096C817.298 51.4749 818.151 52.8402 819.858 54.2056C821.565 55.4856 824.125 56.9789 827.538 58.6856C831.037 60.3922 834.877 62.3122 839.058 64.4456C843.239 66.4936 847.378 68.7549 851.474 71.2296C855.57 73.7042 859.154 76.3069 862.226 79.0376C865.298 81.7682 867.346 84.6696 868.37 87.7416C869.138 89.8749 869.522 91.8802 869.522 93.7576C869.522 98.7069 867.005 102.632 861.97 105.534C856.935 108.35 849.469 109.758 839.57 109.758C831.805 109.758 824.594 107.624 817.938 103.358C811.282 99.0909 805.778 93.5869 801.426 86.8456L802.45 85.5656C807.741 89.6616 813.373 92.9042 819.346 95.2936C825.319 97.5976 831.165 98.7496 836.882 98.7496C840.722 98.7496 843.709 98.2376 845.842 97.2136C848.061 96.1896 849.17 94.9096 849.17 93.3736C849.17 93.0322 849.085 92.6056 848.914 92.0936C848.061 89.7042 846.013 87.4002 842.77 85.1816C839.527 82.8776 835.687 80.4882 831.25 78.0136C826.898 75.4536 822.418 72.6376 817.81 69.5656C813.287 66.4082 809.234 62.8242 805.65 58.8136C803.687 56.4242 802.706 53.9922 802.706 51.5176C802.706 48.7869 803.687 46.1842 805.65 43.7096C807.613 41.2349 810.386 39.2296 813.97 37.6936C817.554 36.0722 821.735 35.2616 826.514 35.2616C832.317 35.2616 837.821 35.7309 843.026 36.6696C848.231 37.6082 852.882 38.8456 856.978 40.3816C861.159 41.8322 864.445 43.4536 866.834 45.2456L858.13 60.9896ZM1003.78 110.782C984.578 110.782 969.09 109.032 957.314 105.534C945.538 101.95 936.919 96.9576 931.458 90.5576C926.082 84.0722 923.394 76.5629 923.394 68.0296C923.394 57.7896 924.717 48.7869 927.362 41.0216C930.007 33.2562 933.549 26.7709 937.986 21.5656C942.423 16.2749 947.373 12.3069 952.834 9.66155C958.295 7.01622 963.842 5.69355 969.474 5.69355C976.045 5.69355 982.658 6.37622 989.314 7.74155C995.97 9.10689 1002.03 11.1976 1007.49 14.0135L1000.32 34.8776C994.946 29.4162 989.314 25.1496 983.426 22.0776C977.623 18.9202 971.693 17.3416 965.634 17.3416C962.733 17.3416 959.959 18.6216 957.314 21.1816C954.669 23.6562 952.322 26.9416 950.274 31.0376C948.226 35.0482 946.605 39.4856 945.41 44.3496C944.301 49.2136 943.746 53.9496 943.746 58.5576C943.746 64.5309 944.514 69.9496 946.05 74.8136C947.586 79.5922 950.189 83.9016 953.858 87.7416C957.613 91.4962 962.69 94.7816 969.09 97.5976C975.575 100.328 983.725 102.632 993.538 104.51L990.722 70.5896L963.714 64.1896V62.6536L1010.82 51.1336L1007.62 110.782H1003.78ZM1031.69 108.222L1027.08 36.9256H1049.61L1049.22 49.5976C1051.19 47.0376 1053.58 44.6909 1056.39 42.5576C1059.21 40.3389 1062.24 38.5896 1065.48 37.3096C1068.81 35.9442 1072.14 35.2616 1075.46 35.2616V54.0776C1073.76 53.1389 1071.84 52.4562 1069.7 52.0296C1067.66 51.5176 1065.52 51.2616 1063.3 51.2616C1060.66 51.2616 1058.06 51.6029 1055.5 52.2856C1052.94 52.8829 1050.8 53.7789 1049.1 54.9736L1047.43 108.222H1031.69ZM1082.91 6.58955L1114.02 11.9656L1093.15 32.9576L1082.91 6.58955ZM1088.42 108.222L1085.09 36.9256H1107.62L1104.29 108.222H1088.42ZM1129.17 108.222L1125.71 8.38155H1148.62L1145.17 108.222H1129.17ZM1170.29 108.222L1166.84 8.38155H1189.75L1186.29 108.222H1170.29Z" fill="#3A3A35"/>
</g>
<defs>
<filter id="filter0_d_5_136" x="0.685059" y="0.829529" width="1193.06" height="144.704" filterUnits="userSpaceOnUse" color-interpolation-filters="sRGB">
<feFlood flood-opacity="0" result="BackgroundImageFix"/>
<feColorMatrix in="SourceAlpha" type="matrix" values="0 0 0 0 0 0 0 0 0 0 0 0 0 0 0 0 0 0 127 0" result="hardAlpha"/>
<feOffset dy="4"/>
<feGaussianBlur stdDeviation="2"/>
<feComposite in2="hardAlpha" operator="out"/>
<feColorMatrix type="matrix" values="0 0 0 0 0 0 0 0 0 0 0 0 0 0 0 0 0 0 0.25 0"/>
<feBlend mode="normal" in2="BackgroundImageFix" result="effect1_dropShadow_5_136"/>
<feBlend mode="normal" in="SourceGraphic" in2="effect1_dropShadow_5_136" result="shape"/>
</filter>
</defs>
</svg>
